<?xml version="1.0" encoding="iso-8859-1"?>
<!-- Generator: Adobe Illustrator 19.0.0, SVG Export Plug-In . SVG Version: 6.00 Build 0)  -->
<svg version="1.1" id="Capa_1" xmlns="http://www.w3.org/2000/svg" xmlns:xlink="http://www.w3.org/1999/xlink" x="0px" y="0px"
	 viewBox="0 0 480 480" style="enable-background:new 0 0 480 480;" xml:space="preserve">
<g>
	<path style="fill:#78B9EB;" d="M381.234,88l-80-80v80H381.234z"/>
	<path style="fill:#78B9EB;" d="M309.234,392l35.024-19.328l-43.768-19.704L309.234,392z"/>
</g>
<g>
	<path style="fill:#1E81CE;" d="M373.234,464h-336V16h256v80h80v24h16V84.688L304.546,0H21.234v480h368V344h-16V464z
		 M309.234,27.312L361.922,80h-52.688V27.312z"/>
	<path style="fill:#1E81CE;" d="M69.234,48h16v16h-16V48z"/>
	<path style="fill:#1E81CE;" d="M101.234,48h160v16h-160V48z"/>
	<path style="fill:#1E81CE;" d="M69.234,80h192v16h-192V80z"/>
	<path style="fill:#1E81CE;" d="M69.234,112h272v16h-272V112z"/>
	<path style="fill:#1E81CE;" d="M69.234,144h272v16h-272V144z"/>
	<path style="fill:#1E81CE;" d="M69.234,176h272v16h-272V176z"/>
	<path style="fill:#1E81CE;" d="M69.234,208h272v16h-272V208z"/>
	<path style="fill:#1E81CE;" d="M69.234,240h240v16h-240V240z"/>
	<path style="fill:#1E81CE;" d="M69.234,272h240v16h-240V272z"/>
	<path style="fill:#1E81CE;" d="M69.234,304h224v16h-224V304z"/>
	<path style="fill:#1E81CE;" d="M69.234,336h208v16h-208V336z"/>
	<path style="fill:#1E81CE;" d="M216.434,411.84c5.396,0.039,10.608-1.961,14.592-5.6c2-1.6,2.6-2.08,4.592-2.08
		s2.592,0.48,4.592,2.08c8.307,7.461,20.901,7.461,29.208,0c2-1.6,2.608-2.088,4.608-2.088s2.608,0.48,4.616,2.088
		c3.993,3.635,9.208,5.634,14.608,5.6v-16c-2,0-2.608-0.48-4.616-2.088c-8.312-7.454-20.904-7.454-29.216,0
		c-2,1.6-2.608,2.088-4.608,2.088s-2.592-0.48-4.6-2.08c-8.299-7.466-20.893-7.466-29.192,0c-2,1.6-2.6,2.08-4.584,2.08
		s-2.592-0.48-4.592-2.08c-3.988-3.643-9.207-5.643-14.608-5.6v16c1.984,0,2.584,0.48,4.584,2.08
		C205.812,409.879,211.031,411.879,216.434,411.84L216.434,411.84z"/>
	<path style="fill:#1E81CE;" d="M444.626,110.792l-14.592-6.576c-12.087-5.439-26.296-0.05-31.735,12.037
		c0,0.001-0.001,0.002-0.001,0.003l-106.2,235.864l11.664,52.04l46.696-25.76l106.2-235.872
		C462.075,130.441,456.694,116.25,444.626,110.792z M311.826,366.792l14.584,6.568l-11.672,6.4L311.826,366.792z M340.282,362.048
		l-29.216-13.088l85.368-189.664l29.184,13.144L340.282,362.048z M442.034,136l-9.848,21.88l-29.184-13.144l9.856-21.872
		c1.818-4.023,6.551-5.813,10.576-4l14.592,6.56C442.052,127.239,443.846,131.973,442.034,136L442.034,136z"/>
</g>
<g>
</g>
<g>
</g>
<g>
</g>
<g>
</g>
<g>
</g>
<g>
</g>
<g>
</g>
<g>
</g>
<g>
</g>
<g>
</g>
<g>
</g>
<g>
</g>
<g>
</g>
<g>
</g>
<g>
</g>
</svg>
